<svg id="DBT Logo" xmlns="http://www.w3.org/2000/svg" viewBox="0 0 80 80">
  <title>Logo (White)</title>
  <path d="M66.757,57.037l-.007-.014L57.273,40.48a18.958,18.958,0,0,0-2.953-3.916h0a18.092,18.092,0,0,0-17.768-4.878,22.29,22.29,0,0,1,23.406,5.28A22.551,22.551,0,0,1,63.5,41.655l2.12,3.7a14.187,14.187,0,0,1,1.135-2.618L79.18,21.051a6.812,6.812,0,0,0-1.1-8.448A6.669,6.669,0,0,0,69.7,11.495h0L48.2,24.021a14.075,14.075,0,0,1-14.18,0l-21.5-12.524A6.935,6.935,0,0,0,9,10.49a6.931,6.931,0,0,0-4.862,2.116,6.809,6.809,0,0,0-1.1,8.445L15.459,42.738a14.432,14.432,0,0,1,0,14.3L3.037,78.721a6.811,6.811,0,0,0,1.1,8.448,6.657,6.657,0,0,0,8.376,1.109L34.019,75.751a13.957,13.957,0,0,1,2.6-1.143l-3.668-2.137a21.587,21.587,0,0,1-8.155-8.261,23.367,23.367,0,0,1-1.607-18.966,19.589,19.589,0,0,0,1.839,14.121,17.621,17.621,0,0,0,6.76,6.823l16.409,9.559.006,0L69.7,88.278a6.658,6.658,0,0,0,8.377-1.109,6.812,6.812,0,0,0,1.1-8.448ZM71.3,15.63a2.653,2.653,0,0,1,3.775,0,2.708,2.708,0,0,1,0,3.807,2.654,2.654,0,0,1-3.775,0A2.708,2.708,0,0,1,71.3,15.63ZM10.913,19.436a2.654,2.654,0,0,1-3.775,0,2.708,2.708,0,0,1,0-3.807,2.653,2.653,0,0,1,3.775,0A2.708,2.708,0,0,1,10.913,19.436Zm0,64.707a2.653,2.653,0,0,1-3.775,0,2.707,2.707,0,0,1,0-3.806,2.653,2.653,0,0,1,3.775,0A2.708,2.708,0,0,1,10.913,84.143Zm38.1-33.211a5.669,5.669,0,0,0-9.558-2.71,5.787,5.787,0,0,0,0,8.136,5.64,5.64,0,0,0,2.687,1.5,7.923,7.923,0,0,1-6.7-2.265,8.122,8.122,0,0,1,0-11.419,7.959,7.959,0,0,1,11.323,0A8.072,8.072,0,0,1,49.015,50.932ZM75.078,84.143a2.653,2.653,0,0,1-3.775,0,2.707,2.707,0,0,1,0-3.806,2.653,2.653,0,0,1,3.775,0A2.708,2.708,0,0,1,75.078,84.143Z" transform="translate(-2.041 -10.489)" fill="#fff"/>
</svg>
